<svg xmlns="http://www.w3.org/2000/svg" xmlns:xlink="http://www.w3.org/1999/xlink" id="Layer_1" viewBox="0 0 393 141"><defs><style>.cls-1{fill:url(#linear-gradient-2);}.cls-2{fill:url(#linear-gradient-3);}.cls-3{fill:url(#linear-gradient);}.cls-4{fill:url(#linear-gradient-4);}.cls-5{fill:#58595b;}</style><linearGradient id="linear-gradient" x1="52.3" y1="13.32" x2="159.61" y2="159.7" gradientTransform="translate(0 141) scale(1 -1)" gradientUnits="userSpaceOnUse"><stop offset=".15" stop-color="#051241"></stop><stop offset=".38" stop-color="#70c48f"></stop><stop offset=".55" stop-color="#a4cd39"></stop><stop offset=".69" stop-color="#dede4b"></stop></linearGradient><linearGradient id="linear-gradient-2" x1="51.93" y1="66.66" x2="117.8" y2="123.09" gradientTransform="translate(0 141) scale(1 -1)" gradientUnits="userSpaceOnUse"><stop offset=".14" stop-color="#3d001f"></stop><stop offset=".37" stop-color="#ee2c24"></stop><stop offset=".57" stop-color="#fdb719"></stop><stop offset=".89" stop-color="#ffe505"></stop></linearGradient><linearGradient id="linear-gradient-3" x1="47.17" y1="102.45" x2="-2.26" y2="34.23" gradientTransform="translate(0 141) scale(1 -1)" gradientUnits="userSpaceOnUse"><stop offset=".27" stop-color="#3d001f"></stop><stop offset=".51" stop-color="#ee2c24"></stop><stop offset=".74" stop-color="#fdb719"></stop><stop offset=".98" stop-color="#ffe505"></stop></linearGradient><linearGradient id="linear-gradient-4" x1="54.42" y1="44.24" x2="45.37" y2="120.48" gradientTransform="translate(0 141) scale(1 -1)" gradientUnits="userSpaceOnUse"><stop offset=".04" stop-color="#530934"></stop><stop offset=".4" stop-color="#ee2c24"></stop><stop offset=".66" stop-color="#fdb719"></stop><stop offset=".98" stop-color="#ffe505"></stop></linearGradient></defs><path class="cls-5" d="M186.3,77.42c-.34,.13-.7,.19-1.06,.18h-25.84l28.49-38.41v-2.02h-44.3c-.29,0-.58-.03-.86-.1v8.18c.28-.07,.57-.1,.86-.1h26.81l-28.15,37.93v2.52h43.01c.36,0,.72,.05,1.06,.18l-.02-8.36Z"></path><path class="cls-5" d="M238.01,40.7c.76-1.1,1.59-2.15,2.48-3.14h-12.94c.02,.1,.03,.2,.04,.31,0,.5-.5,1.44-1.46,2.84l-8.98,12.95-8.72-12.95c-.97-1.44-1.45-2.37-1.45-2.8,0-.11,.01-.23,.03-.34h-13.35c.9,.99,1.73,2.04,2.49,3.14l15.62,22.01v21.74c0,.35-.05,.7-.16,1.04h10.93c-.11-.34-.16-.69-.16-1.04v-21.74l15.62-22.01Z"></path><path class="cls-5" d="M294.79,48.91c-2.03-4.38-5.62-7.85-10.08-9.72-3.17-1.34-7.7-2.02-13.6-2.02h-24.69v48.43h24.69c4.47,0,8.15-.4,11.04-1.19,2.78-.74,5.36-2.09,7.56-3.95,5.14-4.37,7.7-10.73,7.7-19.08-.02-4.77-.89-8.93-2.62-12.47Zm-15.04,26.95c-2.13,1.16-5.31,1.74-9.55,1.74h-13.28V45.15h13.28c3.22,0,5.8,.32,7.74,.97,1.92,.64,3.63,1.77,4.97,3.28,2.46,2.77,3.69,6.75,3.69,11.95,0,7.18-2.29,12.02-6.86,14.5Z"></path><path class="cls-5" d="M364.4,38.13c0-.27,.03-.54,.08-.8h-11.24c.06,.26,.09,.53,.09,.8v32.86l-30.53-31.77c-.56-.5-.94-1.16-1.1-1.89h-14.61c.06,.26,.09,.53,.09,.8v46.9c0,.23-.02,.46-.06,.69h11.15c-.03-.23-.05-.46-.05-.69V51.35l31.04,32.06c.72,.67,1.34,1.45,1.83,2.31h13.38c-.04-.23-.06-.46-.06-.69V38.13Z"></path><path class="cls-5" d="M373.8,85.47h10.58V37.57h-10.58v47.9Z"></path><path class="cls-3" d="M120.23,21.62c-3.42,0-6.62,1.69-8.52,4.53l-36.4,54.35-12.93,19.29,8.34,13.15c1.3,2.04,4,2.65,6.05,1.36,.52-.33,.96-.76,1.3-1.27l9.18-13.7h0L139.32,21.62h-19.09Z"></path><path class="cls-1" d="M73.07,37.89l-12.75,18.99,11.93,18.83,28.07-41.88h-19.68c-3.05,0-5.89,1.53-7.58,4.06Z"></path><path class="cls-2" d="M28.13,45.63L4.36,80.51H26.02c3.01,0,5.83-1.49,7.53-3.98l7.63-11.18-12.77-19.72h-.27Z"></path><path class="cls-4" d="M60.32,56.89l-5.17-8.16c-1.23-1.94-3.37-3.11-5.67-3.11H28.02l19.38,30.57,8.96,14.14,2.97,4.69,12.93-19.29-11.93-18.83Z"></path></svg>